<svg width="171" height="30" viewBox="0 0 171 30" fill="none" xmlns="http://www.w3.org/2000/svg">
<g clip-path="url(#clip0_313_176)">
<path d="M50.7966 23.9159C50.7966 25.4534 51.3249 26.2024 52.0778 26.8463C52.7514 27.4507 53.5703 27.7924 53.5703 28.5677C53.5703 29.1984 53.0684 29.5795 52.091 29.5795C51.1136 29.5795 49.3042 29.4744 48.1419 29.4744C46.8079 29.4744 45.2494 29.5795 44.4041 29.5795C43.3343 29.5795 42.8984 29.1459 42.8984 28.5677C42.8984 27.2799 44.8796 27.3982 45.1834 25.2694C45.3287 24.2181 45.3947 17.9763 45.3947 14.3364C45.3947 11.774 45.3683 6.13666 45.3154 5.32195C45.0777 2.39159 43.0437 2.62812 43.0437 1.14323C43.0437 0.565046 43.3343 0.0394218 44.4305 0.0394218C46.0287 0.0394218 46.9136 0.144547 49.0532 0.144547C51.3514 0.144547 53.2269 0 56.0269 0C62.5383 0 66.2232 2.7201 66.2232 7.93692C66.2232 10.565 64.9157 13.5874 59.7911 15.3614C59.6458 15.4271 59.5137 15.5191 59.5137 15.6636C59.5137 15.7687 59.593 15.9264 59.8043 16.0315C62.8156 17.8055 64.5326 20.4468 66.3025 23.6268C67.1478 25.138 67.7553 26.2155 68.7987 26.9514C69.644 27.6216 70.1723 27.7661 70.1723 28.5283C70.1723 29.343 69.578 29.6058 68.9704 29.6058C68.1251 29.6058 66.2761 29.5007 65.2987 29.5007C63.6477 29.5007 62.3005 29.6058 61.759 29.6058C60.9005 29.6058 60.3062 29.1064 60.3062 28.5545C60.3062 27.8187 60.8081 27.6478 60.8081 26.6097C60.8081 23.9422 57.8495 19.3693 55.7495 17.9632C54.6533 17.3193 52.8174 17.2273 52.5401 17.2273C51.2325 17.2273 50.8098 17.8712 50.8098 18.975V23.929L50.7966 23.9159ZM54.1118 3.25887C51.0476 3.25887 50.8231 3.4954 50.8231 5.82129V11.8134C50.8231 13.1669 51.3117 13.8371 54.1514 13.8371C57.9552 13.8371 60.2005 11.8265 60.2005 8.52825C60.2005 5.22996 57.6911 3.24573 54.0986 3.24573L54.1118 3.25887Z" fill="#231F20"/>
<path d="M76.3009 19.9474C75.9047 19.9737 75.7594 20.0526 75.7594 20.3548C75.7594 22.1813 77.4104 25.7687 81.7689 25.7687C84.9916 25.7687 86.9199 24.1524 88.0426 22.2996C88.2803 21.9974 88.5709 21.7346 88.8218 21.7346C89.1652 21.7346 89.3633 22.0762 89.3633 22.8515C89.3633 25.4665 86.3256 29.9474 80.3161 29.9474C74.3066 29.9474 70.0669 25.4402 70.0669 19.0933C70.0669 12.7464 74.3726 7.27989 80.8444 7.27989C86.1803 7.27989 89.0331 11.1827 89.0331 15.0854C89.0331 16.4258 88.3992 17.201 87.4746 17.7398C84.9652 19.2904 79.3783 19.8292 76.3141 19.9343L76.3009 19.9474ZM80.3557 10.0657C77.384 10.0657 75.2047 13.1275 75.2047 16.3206C75.2047 16.9908 75.416 17.3982 75.9179 17.3982C77.516 17.3982 81.8878 16.8331 83.5123 15.6899C84.001 15.3482 84.2255 14.9146 84.2255 14.3101C84.2255 11.8922 82.5614 10.0657 80.3425 10.0657H80.3557Z" fill="#231F20"/>
<path d="M101.025 13.9553C101.567 13.272 101.831 12.7464 101.831 12.5756C101.831 12.247 101.659 12.1025 98.5555 12.1025C96.1121 12.1025 94.2498 12.4047 93.114 12.9435C92.2687 13.3509 91.9385 13.6925 91.3441 13.6925C90.697 13.6925 90.5913 13.1143 90.5913 12.7201C90.5913 12.247 90.829 11.4718 91.1856 10.0657C91.4762 8.84363 91.529 7.39816 92.7706 7.39816C93.9328 7.39816 94.7385 7.7661 100.603 7.7661C103.931 7.7661 105.608 7.55585 106.771 7.55585C107.378 7.55585 107.761 7.75296 107.761 8.52825C107.761 8.69908 107.576 9.40868 107.048 10.0788L97.1555 23.1932C96.7593 23.7319 96.3498 24.3627 96.3498 24.5992C96.3498 24.8752 96.5612 24.9409 99.4933 24.9409C101.897 24.9409 103.931 24.4415 105.173 23.8239C106.242 23.2852 106.612 22.8778 107.141 22.8778C107.775 22.8778 107.854 23.456 107.854 23.9553C107.854 24.862 107.405 26.2024 107.088 28.3311C107.008 29.0802 106.691 29.8423 105.635 29.8423C104.09 29.8423 103.627 29.5007 96.7725 29.5007C92.7838 29.5007 92.5328 29.6321 91.1196 29.6321C90.5913 29.6321 90.063 29.5007 90.063 28.7911C90.063 28.4231 90.3007 27.8449 90.829 27.2011L101.065 13.9816L101.025 13.9553Z" fill="#231F20"/>
<path d="M115.316 19.9474C114.92 19.9737 114.775 20.0526 114.775 20.3548C114.775 22.1813 116.426 25.7687 120.784 25.7687C124.007 25.7687 125.935 24.1524 127.058 22.2996C127.295 21.9974 127.586 21.7346 127.837 21.7346C128.18 21.7346 128.378 22.0762 128.378 22.8515C128.378 25.4665 125.341 29.9474 119.331 29.9474C113.322 29.9474 109.082 25.4402 109.082 19.0933C109.082 12.7464 113.388 7.27989 119.86 7.27989C125.195 7.27989 128.048 11.1827 128.048 15.0854C128.048 16.4258 127.414 17.201 126.49 17.7398C123.98 19.2904 118.393 19.8292 115.329 19.9343L115.316 19.9474ZM119.371 10.0657C116.399 10.0657 114.22 13.1275 114.22 16.3206C114.22 16.9908 114.431 17.3982 114.933 17.3982C116.531 17.3982 120.903 16.8331 122.527 15.6899C123.016 15.3482 123.241 14.9146 123.241 14.3101C123.241 11.8922 121.577 10.0657 119.358 10.0657H119.371Z" fill="#231F20"/>
<path d="M140.477 7.29304C144.782 7.29304 147.899 9.73719 147.899 12.8121C147.899 14.8883 146.381 16.0972 144.611 16.0972C143.62 16.0972 143.554 15.5322 143.263 14.2838C142.801 12.0894 141.705 10.0394 139.46 10.0394C136.765 10.0394 134.705 12.8647 134.705 16.9251C134.705 21.6294 137.254 25.3088 141.705 25.3088C145.35 25.3088 146.922 22.8909 147.675 21.6426C147.86 21.3798 148.124 21.0775 148.388 21.0775C148.877 21.0775 148.996 21.6426 148.996 22.3127C148.996 25.4796 145.773 29.9737 139.962 29.9737C134.15 29.9737 129.712 25.4008 129.712 19.0802C129.712 12.7595 133.767 7.30618 140.45 7.30618L140.477 7.29304Z" fill="#231F20"/>
<path d="M163.049 16.6097C163.286 16.4389 163.498 16.0972 163.498 14.7306C163.498 11.9448 162.362 9.71091 159.575 9.71091C157.316 9.71091 156.26 11.4717 155.798 13.456C155.547 14.5072 155.124 15.2037 153.962 15.2037C152.799 15.2037 151.465 14.3364 151.465 12.4442C151.465 9.96058 154.464 7.26675 159.628 7.26675C165.069 7.26675 168.596 10.3548 168.596 15.9396C168.596 18.7385 168.358 22.0631 168.358 24.021C168.358 24.9671 168.649 25.8739 169.586 25.8739C170.088 25.8739 170.3 25.703 170.617 25.703C170.788 25.703 171 25.9396 171 26.4389C171 28.2917 169.309 29.8029 167.196 29.8029C165.4 29.8029 164.224 29.1196 163.59 27.5427C163.511 27.3456 163.379 27.1748 163.233 27.1748C163.088 27.1748 162.916 27.4376 162.745 27.6084C161.371 28.9619 159.099 30 156.696 30C153.13 30 150.343 28.0815 150.343 24.6255C150.343 21.1695 152.747 19.0407 156.484 17.8975C159.232 17.0959 162.533 16.9645 163.049 16.5966V16.6097ZM163.115 19.3693C161.358 19.3693 159.945 19.5401 158.743 19.9343C156.511 20.6833 155.52 22.1945 155.52 23.7319C155.52 25.5191 156.828 26.5572 158.637 26.5572C161.503 26.5572 163.511 24.3627 163.511 21.0512C163.511 19.7503 163.379 19.3693 163.115 19.3693Z" fill="#231F20"/>
<path d="M29.7699 4.23127C29.7699 1.89441 27.8658 0 25.517 0C23.1682 0 21.2642 1.89441 21.2642 4.23127C21.2642 6.56814 23.1682 8.46255 25.517 8.46255C27.8658 8.46255 29.7699 6.56814 29.7699 4.23127Z" fill="#FBBA00"/>
<path d="M2.13965 21.1564H6.39252C7.56801 21.1564 8.51896 22.1025 8.51896 23.272V27.4901C8.51896 28.6597 7.56801 29.6058 6.39252 29.6058H2.12644C0.950954 29.6189 0 28.6597 0 27.5033V23.2851C0 22.1156 0.950954 21.1695 2.12644 21.1695L2.13965 21.1564Z" fill="#231F20"/>
<path d="M29.7701 23.272V27.5033C29.7701 28.6728 28.8192 29.6189 27.6437 29.6189H23.404C22.2285 29.6189 21.2776 28.6728 21.2776 27.5033V23.9816C21.2776 21.2484 19.0587 19.0407 16.3115 19.0407H12.7718C11.5964 19.0407 10.6454 18.0946 10.6454 16.9251V13.3903C10.6454 10.6702 8.42651 8.44941 5.67931 8.44941H2.12644C0.950954 8.44941 0 7.50329 0 6.33377V2.11564C0 0.946124 0.950954 0 2.12644 0H6.36611C7.5548 0 8.50575 0.946124 8.50575 2.11564V5.63732C8.50575 7.00394 9.06048 8.23916 9.9586 9.13272C10.8567 10.0263 12.0982 10.5782 13.4718 10.5782H17.0247C18.2002 10.5782 19.1512 11.5243 19.1512 12.6938V16.2155C19.1512 17.5821 19.7059 18.8173 20.604 19.7109C21.5021 20.6045 22.7436 21.1564 24.1172 21.1564H27.6569C28.8324 21.1564 29.7833 22.1025 29.7833 23.272H29.7701Z" fill="#231F20"/>
<path d="M10.6323 6.34691V2.11564C10.6323 0.946124 11.5833 0 12.7588 0H17.0116C18.1739 0 19.1249 0.946124 19.1249 2.11564V5.63732C19.1249 7.00394 19.6796 8.23916 20.5777 9.13272C21.4758 10.0263 22.7174 10.5782 24.091 10.5782H27.6438C28.8193 10.5782 29.7703 11.5243 29.7703 12.6938V16.912C29.7703 18.0815 28.8193 19.0276 27.6438 19.0276H23.4042C22.2287 19.0276 21.2777 18.0815 21.2777 16.912V13.3771C21.2777 10.657 19.0588 8.43627 16.3116 8.43627H12.772C11.5965 8.43627 10.6455 7.49014 10.6455 6.32063L10.6323 6.34691Z" fill="#231F20"/>
<path d="M19.1379 23.272V27.5033C19.1379 28.6728 18.187 29.6189 17.0115 29.6189H12.7586C11.5831 29.6189 10.6322 28.6728 10.6322 27.5033V23.9816C10.6322 21.2484 8.4133 19.0407 5.6661 19.0407H2.13965C0.964162 19.0407 0 18.0946 0 16.9251V12.707C0 11.5374 0.950954 10.5913 2.12644 10.5913H6.36611C7.54159 10.5913 8.49255 11.5374 8.49255 12.707V16.2286C8.49255 17.5953 9.04727 18.8305 9.94539 19.724C10.8435 20.6176 12.085 21.1695 13.4586 21.1695H16.9983C18.1738 21.1695 19.1247 22.1156 19.1247 23.2851L19.1379 23.272Z" fill="#231F20"/>
</g>
<defs>
<clipPath id="clip0_313_176">
<rect width="171" height="30" fill="white"/>
</clipPath>
</defs>
</svg>
